<?xml version="1.0" standalone="no"?>
<!DOCTYPE svg PUBLIC "-//W3C//DTD SVG 20010904//EN"
 "http://www.w3.org/TR/2001/REC-SVG-20010904/DTD/svg10.dtd">
<svg version="1.0" xmlns="http://www.w3.org/2000/svg"
 width="576.000000pt" height="87.000000pt" viewBox="0 0 576.000000 87.000000"
 preserveAspectRatio="xMidYMid meet">

<g transform="translate(0.000000,87.000000) scale(0.100000,-0.100000)"
fill="#000000" stroke="none">
<path d="M88 804 c-41 -22 -58 -63 -58 -141 1 -141 86 -237 223 -250 55 -5 72
-2 118 19 102 47 152 122 153 228 0 48 -6 77 -23 113 l-23 47 -181 0 c-141 -1
-188 -4 -209 -16z"/>
<path d="M657 773 c24 -79 14 -195 -25 -273 -17 -36 -39 -75 -48 -87 l-16 -23
136 0 137 0 -3 186 -3 186 -33 29 c-29 26 -40 29 -96 29 l-64 0 15 -47z"/>
<path d="M1190 628 c-119 -80 -113 -338 9 -406 85 -48 185 -16 230 73 22 41
26 63 26 130 0 96 -29 166 -84 202 -47 32 -135 32 -181 1z m153 -98 c14 -27
17 -53 15 -117 -3 -70 -6 -85 -27 -107 -71 -76 -150 32 -125 171 13 75 32 95
84 91 29 -3 38 -9 53 -38z"/>
<path d="M1530 430 l0 -220 135 0 135 0 0 40 0 40 -85 0 -85 0 0 180 0 180
-50 0 -50 0 0 -220z"/>
<path d="M1850 430 l0 -220 50 0 50 0 0 220 0 220 -50 0 -50 0 0 -220z"/>
<path d="M2001 633 c0 -10 26 -108 58 -218 l58 -200 53 0 54 0 57 194 c80 270
76 241 31 241 l-39 0 -42 -155 c-24 -85 -46 -155 -50 -155 -3 0 -22 60 -40
133 -48 188 -42 177 -96 177 -36 0 -45 -3 -44 -17z"/>
<path d="M2400 430 l0 -220 150 0 150 0 0 40 0 40 -105 0 -105 0 0 50 0 50 80
0 80 0 0 40 0 40 -81 0 -80 0 3 48 3 47 103 3 102 3 0 39 0 40 -150 0 -150 0
0 -220z"/>
<path d="M2760 430 l0 -220 50 0 50 0 0 220 0 220 -50 0 -50 0 0 -220z"/>
<path d="M2950 430 l0 -220 45 0 45 0 0 85 0 85 39 0 38 0 32 -85 33 -85 49 0
c27 0 49 2 49 5 0 3 -15 46 -34 95 l-35 89 35 35 c30 30 34 40 34 84 0 40 -6
57 -26 81 -33 40 -77 51 -201 51 l-103 0 0 -220z m210 132 c27 -22 30 -67 6
-90 -10 -11 -34 -16 -68 -17 l-53 0 -3 49 c-2 27 -1 55 2 62 8 21 89 18 116
-4z"/>
<path d="M3425 533 c-20 -65 -50 -160 -66 -212 -16 -52 -29 -98 -29 -102 0 -5
18 -9 40 -9 39 0 40 1 51 45 l11 45 73 0 73 0 11 -45 11 -45 50 0 c28 0 50 3
50 7 0 4 -20 73 -44 153 -25 80 -54 174 -64 210 l-20 65 -55 3 -56 3 -36 -118z
m100 -60 c9 -32 18 -66 21 -75 5 -15 -2 -18 -40 -18 -25 0 -46 3 -46 6 0 13
41 144 45 144 2 0 11 -26 20 -57z"/>
<path d="M3872 608 l3 -41 50 -1 50 -1 3 -177 2 -178 50 0 50 0 2 178 3 177
48 0 47 0 0 43 0 42 -156 0 -155 0 3 -42z"/>
<path d="M4230 431 l0 -221 45 0 45 0 0 86 0 85 43 -3 42 -3 29 -82 28 -83 54
0 54 0 -16 38 c-9 20 -25 63 -37 94 l-21 57 31 29 c59 55 50 157 -17 196 -29
17 -56 22 -157 25 l-123 3 0 -221z m226 124 c38 -52 -9 -108 -85 -103 l-46 3
-3 49 c-5 74 -1 79 65 74 39 -3 60 -10 69 -23z"/>
<path d="M4642 468 c3 -164 5 -186 23 -210 40 -54 155 -73 232 -39 67 31 73
52 73 256 l0 175 -40 0 -40 0 0 -169 c0 -183 -1 -186 -57 -197 -30 -6 -71 8
-85 30 -4 6 -8 84 -8 174 l0 162 -51 0 -51 0 4 -182z"/>
<path d="M5105 631 c-46 -28 -65 -63 -65 -122 0 -67 27 -93 135 -128 68 -22
81 -30 83 -50 8 -55 -88 -72 -136 -24 -15 15 -34 26 -42 25 -71 -12 -76 -24
-30 -75 66 -76 219 -76 278 1 20 27 26 46 26 87 1 80 -25 103 -156 139 -68 19
-85 48 -47 79 29 23 76 17 102 -15 16 -19 21 -20 58 -9 l40 12 -18 31 c-10 17
-34 39 -53 49 -46 25 -135 25 -175 0z"/>
<path d="M5392 608 l3 -41 50 -1 50 -1 3 -177 2 -178 45 0 45 0 0 175 0 175
25 6 c14 3 39 4 55 2 29 -4 30 -4 30 39 l0 43 -156 0 -155 0 3 -42z"/>
<path d="M30 231 c0 -135 9 -164 60 -195 24 -14 63 -16 259 -16 l231 0 0 120
0 120 -177 0 c-181 0 -229 7 -304 45 -19 10 -42 24 -51 33 -17 14 -18 8 -18
-107z"/>
<path d="M700 145 c0 -130 3 -135 65 -115 55 18 75 59 75 153 l0 77 -70 0 -70
0 0 -115z"/>
</g>
</svg>
